G04*
G04 #@! TF.GenerationSoftware,Altium Limited,Altium Designer,24.1.2 (44)*
G04*
G04 Layer_Physical_Order=8*
G04 Layer_Color=16711680*
%FSLAX25Y25*%
%MOIN*%
G70*
G04*
G04 #@! TF.SameCoordinates,17CD14A9-96D0-4E8B-9761-A60F31DED3B0*
G04*
G04*
G04 #@! TF.FilePolarity,Positive*
G04*
G01*
G75*
%ADD15R,0.11024X0.02165*%
%ADD32R,0.03661X0.03661*%
%ADD33C,0.03661*%
%ADD34O,0.16339X0.08169*%
%ADD35C,0.17717*%
%ADD36C,0.07087*%
%ADD37R,0.07677X0.07677*%
%ADD38C,0.07677*%
%ADD39C,0.07874*%
%ADD40C,0.06496*%
%ADD41C,0.05456*%
%ADD42R,0.05756X0.05756*%
%ADD43C,0.16795*%
%ADD44R,0.06791X0.06791*%
%ADD45C,0.06791*%
%ADD46C,0.12205*%
D15*
X9575Y21772D02*
D03*
Y24921D02*
D03*
Y28071D02*
D03*
Y31220D02*
D03*
Y34370D02*
D03*
Y37520D02*
D03*
Y40669D02*
D03*
Y43819D02*
D03*
Y46968D02*
D03*
Y50118D02*
D03*
Y53268D02*
D03*
Y56417D02*
D03*
Y59567D02*
D03*
Y62717D02*
D03*
Y65866D02*
D03*
Y69016D02*
D03*
Y72165D02*
D03*
Y75315D02*
D03*
Y78465D02*
D03*
Y81614D02*
D03*
Y84764D02*
D03*
Y87914D02*
D03*
Y91063D02*
D03*
Y106811D02*
D03*
Y109961D02*
D03*
Y113110D02*
D03*
Y116260D02*
D03*
Y119410D02*
D03*
Y122559D02*
D03*
Y125709D02*
D03*
Y128858D02*
D03*
Y132008D02*
D03*
Y135158D02*
D03*
Y138307D02*
D03*
Y141457D02*
D03*
Y144606D02*
D03*
Y147756D02*
D03*
Y150906D02*
D03*
Y154055D02*
D03*
Y157205D02*
D03*
Y160354D02*
D03*
Y163504D02*
D03*
Y166654D02*
D03*
Y169803D02*
D03*
Y172953D02*
D03*
Y176102D02*
D03*
Y179252D02*
D03*
Y182402D02*
D03*
Y185551D02*
D03*
Y188701D02*
D03*
D32*
X572441Y123150D02*
D03*
D33*
Y127480D02*
D03*
Y131811D02*
D03*
Y136142D02*
D03*
X575591Y139094D02*
D03*
X572441Y142047D02*
D03*
Y149331D02*
D03*
X575591Y152284D02*
D03*
X572441Y155236D02*
D03*
Y159567D02*
D03*
Y163898D02*
D03*
Y168228D02*
D03*
X577658Y126201D02*
D03*
Y130532D02*
D03*
Y134862D02*
D03*
Y156516D02*
D03*
Y160846D02*
D03*
Y165177D02*
D03*
X582874Y166752D02*
D03*
Y162421D02*
D03*
Y158091D02*
D03*
Y153760D02*
D03*
X579724Y150807D02*
D03*
X582874Y147854D02*
D03*
Y143524D02*
D03*
X579724Y140571D02*
D03*
X582874Y137618D02*
D03*
Y133287D02*
D03*
Y128957D02*
D03*
Y124626D02*
D03*
D34*
X577658Y110650D02*
D03*
Y180728D02*
D03*
D35*
X581614Y-133701D02*
D03*
Y-84488D02*
D03*
D36*
X583583Y-115787D02*
D03*
Y-102402D02*
D03*
X575906Y-113327D02*
D03*
Y-104862D02*
D03*
D37*
X436299Y-360787D02*
D03*
D38*
X446299D02*
D03*
X436299Y-350787D02*
D03*
X446299D02*
D03*
X436299Y-340787D02*
D03*
X446299D02*
D03*
X436299Y-330787D02*
D03*
X446299D02*
D03*
X436299Y-320787D02*
D03*
X446299D02*
D03*
X436299Y-310787D02*
D03*
X446299D02*
D03*
X436299Y-300787D02*
D03*
X446299D02*
D03*
D39*
X542913Y16555D02*
D03*
X571417Y-44331D02*
D03*
Y77441D02*
D03*
D40*
X583425Y66555D02*
D03*
Y-33445D02*
D03*
D41*
X558425Y26555D02*
D03*
X548425Y31555D02*
D03*
X558425Y36555D02*
D03*
X548425Y41555D02*
D03*
X558425Y46555D02*
D03*
X548425Y51555D02*
D03*
X558425Y66555D02*
D03*
X599409Y-36476D02*
D03*
Y-26476D02*
D03*
Y14547D02*
D03*
Y4547D02*
D03*
X592402Y28563D02*
D03*
Y18563D02*
D03*
X599409Y69587D02*
D03*
Y59587D02*
D03*
X558425Y56555D02*
D03*
X548425Y61555D02*
D03*
X558425Y-28445D02*
D03*
X548425Y-23445D02*
D03*
X558425Y-18445D02*
D03*
X548425Y-13445D02*
D03*
X558425Y-8445D02*
D03*
X548425Y-3445D02*
D03*
X558425Y11555D02*
D03*
Y1555D02*
D03*
X548425Y6555D02*
D03*
Y21555D02*
D03*
D42*
Y-33445D02*
D03*
D43*
X576968Y-173465D02*
D03*
Y-304646D02*
D03*
D44*
X571969Y-200886D02*
D03*
D45*
Y-211791D02*
D03*
Y-222697D02*
D03*
Y-233602D02*
D03*
Y-244508D02*
D03*
Y-255413D02*
D03*
Y-266319D02*
D03*
Y-277224D02*
D03*
X581968Y-206339D02*
D03*
Y-217244D02*
D03*
Y-228150D02*
D03*
Y-239055D02*
D03*
Y-249961D02*
D03*
Y-260866D02*
D03*
Y-271772D02*
D03*
D46*
X242126Y183031D02*
D03*
Y-257165D02*
D03*
M02*
