M48
;Layer_Color=9474304
;FILE_FORMAT=2:5
INCH,TZ
;TYPE=PLATED
T01F00S00C0.02283
T02F00S00C0.03504
T04F00S00C0.04016
T05F00S00C0.04528
T06F00S00C0.05118
T07F00S00C0.06299
T08F00S00C0.11811
T09F00S00C0.12795
;TYPE=NON_PLATED
T10F00S00C0.12598
T11F00S00C0.13386
%
T01
X572441Y123150
Y127480
Y131811
Y136142
Y142047
X575591Y139094
X579724Y140571
X582874Y143524
Y147854
Y153760
Y158091
Y162421
X577658Y160846
Y156516
X575591Y152284
X579724Y150807
X572441Y149331
Y155236
Y159567
Y163898
X577658Y134862
Y130532
Y126201
X582874Y124626
Y128957
Y133287
Y137618
Y166752
X577658Y165177
X572441Y168228
T02
X548425Y-33445
Y-23445
Y-13445
Y-3445
Y6555
X558425Y1555
Y-8445
Y-18445
Y-28445
Y11555
Y26555
Y36555
Y46555
Y56555
Y66555
X548425Y61555
Y51555
Y41555
Y31555
Y21555
T04
X599409Y-36476
Y-26476
Y4547
Y14547
X592402Y18563
Y28563
X599409Y59587
Y69587
T05
X571969Y-277224
Y-266319
Y-255413
Y-244508
Y-233602
Y-222697
Y-211791
Y-200886
X581968Y-206339
Y-217244
Y-228150
Y-239055
Y-249961
Y-260866
Y-271772
T06
X436299Y-360787
X446299
Y-350787
X436299
Y-340787
X446299
Y-330787
X436299
Y-320787
X446299
Y-310787
X436299
Y-300787
X446299
X575906Y-113327
Y-104862
X583583Y-102402
Y-115787
T07
X571417Y-44331
Y77441
X542913Y16555
T08
X581614Y-133701
Y-84488
T09
X576968Y-304646
Y-173465
T10
X583425Y-33445
Y66555
T11
X242126Y-257165
Y183031
M30
